<?xml version="1.0" encoding="utf-8"?>
<!-- Generator: Adobe Illustrator 17.1.0, SVG Export Plug-In . SVG Version: 6.00 Build 0)  -->
<!DOCTYPE svg PUBLIC "-//W3C//DTD SVG 1.1//EN" "http://www.w3.org/Graphics/SVG/1.1/DTD/svg11.dtd">
<svg version="1.1" xmlns="http://www.w3.org/2000/svg" xmlns:xlink="http://www.w3.org/1999/xlink" x="0px" y="0px"
   viewBox="0 0 400 342" enable-background="new 0 0 612 792" xml:space="preserve">
<g id="Layer_2">
  <line fill="none" x1="197.8" y1="9.4" x2="168.2" y2="9.4"/>
  <path fill="none" stroke="#000000" stroke-width="13" stroke-miterlimit="10" d="M97.1,46.6l-31-11.5c-3.4-1.3-7.1-1.2-10.5,0.1
    L10.7,52.7c-5.4,2.1-6.4,9.3-1.8,12.8l29.8,22.7L95.1,92"/>
  <path fill="none" stroke="#000000" stroke-width="13" stroke-miterlimit="10" d="M197.8,329.4h-7.6c-4.6,0-8.9-2-11.8-5.6
    L116,247.7c-1.8-2.2-3-5-3.3-7.8l-10.2-89l-9.4-25l4-79.4"/>
  <path fill="none" stroke="#000000" stroke-width="13" stroke-miterlimit="10" d="M297.5,46.6L229.3,11c-1.9-1-4.1-1.5-6.3-1.5
    h-47.3h-4.2c-2.2,0-4.3,0.5-6.3,1.5L97.1,46.6"/>
  <path fill="none" stroke="#000000" stroke-width="13" stroke-miterlimit="10" d="M297.5,46.6L329,34.9c3-1.1,6.4-1.1,9.4,0.1
    l47,18.3c4.7,1.8,5.6,8.1,1.6,11.2l-31.1,23.7L299.5,92"/>
  <path fill="none" stroke="#000000" stroke-width="13" stroke-miterlimit="10" d="M297.5,46.6l4,79.4l-9.4,25l-10.3,89.3
    c-0.3,2.7-1.4,5.2-3.1,7.3l-62.5,76.2c-3,3.6-7.4,5.7-12.1,5.7h-13.8"/>
  <line fill="none" stroke="#000000" stroke-width="8" stroke-miterlimit="10" x1="168.2" y1="289.9" x2="197.8" y2="285.4"/>
  <line fill="none" stroke="#000000" stroke-width="8" stroke-miterlimit="10" x1="197.8" y1="285.4" x2="197.8" y2="258.5"/>
  <line fill="none" stroke="#000000" stroke-width="8" stroke-miterlimit="10" x1="197.8" y1="258.5" x2="172.3" y2="239.3"/>
  <line fill="none" stroke="#000000" stroke-width="8" stroke-miterlimit="10" x1="227.4" y1="289.9" x2="197.8" y2="285.4"/>
  <line fill="none" stroke="#000000" stroke-width="8" stroke-miterlimit="10" x1="197.8" y1="258.5" x2="223.3" y2="239.3"/>
</g>
<g id="Layer_3">
  <polygon fill="#ED1F24" stroke="#000000" stroke-width="13" stroke-miterlimit="10" points="304.4,150.9 304.4,100 296.5,91.6 
    95.5,79 94,131.5 290.5,185.9  "/>
  <path fill="#ED1F24" stroke="#000000" stroke-width="9" stroke-miterlimit="10" d="M88.6,119.3l-42.7,74.8
    c-0.5,0.8-1.8,0.5-1.8-0.4v-17.8l14.2-56.5H88.6z"/>
  <path fill="#ED1F24" stroke="#000000" stroke-width="10" stroke-miterlimit="10" d="M75.9,93.9l-46.3,29.9l-4.1,19.6
    c-0.6,2.9,2.2,5.3,4.8,4l30.4-14.7L75.9,93.9z"/>
  <path fill="none" stroke="#000000" stroke-width="13" stroke-miterlimit="10" d="M75.2,80.1"/>
  <path fill="#ED1F24" stroke="#000000" stroke-width="9" stroke-miterlimit="10" d="M61,129.1c0,0-0.9-31.9,5.3-39.9
    c15.8-6.7-0.2-1.4,15.1-3.9s13.2,13.1,13.2,13.1h-1.1c0,0,3.2,27.7-5.6,30.9S62.1,133.2,61,129.1z"/>
  <line fill="none" stroke="#000000" stroke-width="3" stroke-miterlimit="10" x1="182.6" y1="100.2" x2="273.8" y2="117.2"/>
  <line fill="none" stroke="#000000" stroke-width="3" stroke-miterlimit="10" x1="120.6" y1="103" x2="211.9" y2="119.5"/>
  <line fill="none" stroke="#000000" stroke-width="5" stroke-miterlimit="10" x1="246" y1="147.8" x2="124.7" y2="119.3"/>
</g>
</svg>

